<?xml version="1.0" encoding="UTF-8"?>
<svg xmlns="http://www.w3.org/2000/svg" width="1600" height="900" viewBox="0 0 1600 900" role="img" aria-label="SİVRİHİSAR banner">
  <defs>
    <linearGradient id="g" x1="0%" y1="0%" x2="100%" y2="0%">
      <stop offset="0%" stop-color="#7a8cff" />
      <stop offset="48%" stop-color="#5b6ac1" />
      <stop offset="100%" stop-color="#0b1220" />
    </linearGradient>
    <radialGradient id="r1" cx="20%" cy="18%" r="85%">
      <stop offset="0%" stop-color="#9facff" stop-opacity="0.82" />
      <stop offset="100%" stop-color="#7a8cff" stop-opacity="0" />
    </radialGradient>
    <filter id="blur"><feGaussianBlur stdDeviation="20" /></filter>
  </defs>
  <rect width="1600" height="900" fill="url(#g)"/>
  <rect width="1600" height="900" fill="url(#r1)" opacity="0.8"/>
  <path d="M0 640 C 190 540, 360 680, 540 620 C 720 560, 860 420, 1040 500 C 1220 580, 1390 560, 1600 450 L 1600 900 L 0 900 Z" fill="#08111f" opacity="0.52"/>
  <path d="M180 650 C 260 580, 360 580, 440 650" stroke="#fff" stroke-opacity="0.22" stroke-width="8" fill="none" stroke-linecap="round"/>
  <path d="M540 610 C 620 560, 700 560, 780 610" stroke="#fff" stroke-opacity="0.16" stroke-width="8" fill="none" stroke-linecap="round"/>
  <circle cx="1230" cy="210" r="165" fill="#9facff" opacity="0.18" filter="url(#blur)"/>
  <circle cx="360" cy="760" r="210" fill="#fff" opacity="0.06" filter="url(#blur)"/>
  <text x="92" y="150" fill="#f2f7ff" font-family="Arial, sans-serif" font-size="48" font-weight="700" letter-spacing="5">MY TOUR GUIDE</text>
  <text x="92" y="260" fill="#ffffff" font-family="Arial, sans-serif" font-size="104" font-weight="800">SİVRİHİSAR</text>
  <text x="92" y="332" fill="#e3ecff" font-family="Arial, sans-serif" font-size="34" font-weight="500">ESKİŞEHİR • Marmara</text>
  <text x="92" y="780" fill="#ffffff" font-family="Arial, sans-serif" font-size="28" font-weight="500">District guide • Tailor-made routes • SEO ready</text>
</svg>